<?xml version="1.0" standalone="no"?><!DOCTYPE svg PUBLIC "-//W3C//DTD SVG 1.1//EN" "http://www.w3.org/Graphics/SVG/1.1/DTD/svg11.dtd"><svg t="1690353153487" class="icon" viewBox="0 0 1024 1024" version="1.1" xmlns="http://www.w3.org/2000/svg" p-id="6907" xmlns:xlink="http://www.w3.org/1999/xlink" width="64" height="64"><path d="M945.749333 293.376l-92.928-61.952A240.042667 240.042667 0 0 0 384 304v68.778667L6.997333 844.032A32 32 0 0 0 32 896h416a416.426667 416.426667 0 0 0 416-416V401.109333l81.749333-54.485333a32 32 0 0 0 0-53.248z m-505.173333 271.104l-160 192a32 32 0 0 1-49.152-40.96l160-192a32 32 0 0 1 49.152 40.96z m215.424-244.48a48 48 0 1 1 0-96 48 48 0 0 1 0 96z" fill="#1296db" p-id="6908"></path></svg>