<?xml version="1.0" standalone="no"?><!DOCTYPE svg PUBLIC "-//W3C//DTD SVG 1.1//EN" "http://www.w3.org/Graphics/SVG/1.1/DTD/svg11.dtd"><svg height="1080" node-id="1" sillyvg="true" template-height="1080" template-width="1080" version="1.1" viewBox="0 0 1080 1080" width="1080" xmlns="http://www.w3.org/2000/svg" xmlns:xlink="http://www.w3.org/1999/xlink"><defs node-id="131"><linearGradient gradientUnits="objectBoundingBox" id="linearGradient-1" node-id="5" spreadMethod="pad" x1="1.208921" x2="-0.24963816" y1="0.495731" y2="0.495731"><stop offset="0" stop-color="#c8cacd" stop-opacity="0"></stop><stop offset="1" stop-color="#b2b5b8"></stop></linearGradient><linearGradient gradientUnits="objectBoundingBox" id="linearGradient-2" node-id="8" spreadMethod="pad" x1="0.5174403" x2="0.47763264" y1="0.09555806" y2="1.0008589"><stop offset="0" stop-color="#f4f5f5"></stop><stop offset="1" stop-color="#b3b5b9"></stop></linearGradient><linearGradient gradientUnits="objectBoundingBox" id="linearGradient-3" node-id="11" spreadMethod="pad" x1="0.49245754" x2="0.5166706" y1="0.073897615" y2="0.9981334"><stop offset="0" stop-color="#f3f4f4"></stop><stop offset="1" stop-color="#b3b5b9"></stop></linearGradient><linearGradient gradientUnits="objectBoundingBox" id="linearGradient-4" node-id="14" spreadMethod="pad" x1="0.49969542" x2="0.49969542" y1="1.0007584" y2="-0.43608382"><stop offset="0" stop-color="#f8f8f9"></stop><stop offset="1" stop-color="#e2e3e4"></stop></linearGradient><linearGradient gradientUnits="objectBoundingBox" id="linearGradient-5" node-id="17" spreadMethod="pad" x1="0.49944085" x2="0.49944085" y1="0.99791795" y2="0.029637193"><stop offset="0" stop-color="#f4f5f5" stop-opacity="0"></stop><stop offset="1" stop-color="#eeeff0"></stop></linearGradient><linearGradient gradientUnits="objectBoundingBox" id="linearGradient-8" node-id="26" spreadMethod="pad" x1="0.5221304" x2="0.46925902" y1="0.10217764" y2="1.005759"><stop offset="0" stop-color="#f4f5f5"></stop><stop offset="1" stop-color="#b3b5b9"></stop></linearGradient><linearGradient gradientUnits="objectBoundingBox" id="linearGradient-9" node-id="29" spreadMethod="pad" x1="0.48910907" x2="0.5249318" y1="0.07493652" y2="0.9959753"><stop offset="0" stop-color="#f3f4f4"></stop><stop offset="1" stop-color="#b3b5b9"></stop></linearGradient><linearGradient gradientUnits="objectBoundingBox" id="linearGradient-10" node-id="32" spreadMethod="pad" x1="0.52198535" x2="0.46902692" y1="0.1007891" y2="1.0020669"><stop offset="0" stop-color="#f4f5f5"></stop><stop offset="1" stop-color="#b3b5b9"></stop></linearGradient><linearGradient gradientUnits="objectBoundingBox" id="linearGradient-11" node-id="35" spreadMethod="pad" x1="0.48842958" x2="0.5254818" y1="0.07466317" y2="0.996991"><stop offset="0" stop-color="#f3f4f4"></stop><stop offset="1" stop-color="#b3b5b9"></stop></linearGradient><linearGradient gradientUnits="objectBoundingBox" id="linearGradient-12" node-id="38" spreadMethod="pad" x1="0.49987596" x2="0.49987596" y1="0.000008190988" y2="1.0003266"><stop offset="0" stop-color="#eeeff0"></stop><stop offset="1" stop-color="#d7d8da"></stop></linearGradient><linearGradient gradientUnits="objectBoundingBox" id="linearGradient-13" node-id="41" spreadMethod="pad" x1="0.49958783" x2="0.49958783" y1="0.0044999826" y2="0.98527974"><stop offset="0" stop-color="#ffffff"></stop><stop offset="1" stop-color="#e9e9e9"></stop></linearGradient><linearGradient gradientUnits="objectBoundingBox" id="linearGradient-14" node-id="44" spreadMethod="pad" x1="0.99879265" x2="0.057747744" y1="0.5043028" y2="0.49670765"><stop offset="0" stop-color="#eeeff0"></stop><stop offset="1" stop-color="#c4c6c9"></stop></linearGradient><linearGradient gradientUnits="objectBoundingBox" id="linearGradient-15" node-id="47" spreadMethod="pad" x1="0.99879265" x2="0.057747744" y1="0.504379" y2="0.49678382"><stop offset="0" stop-color="#eeeff0"></stop><stop offset="1" stop-color="#c4c6c9"></stop></linearGradient><linearGradient gradientUnits="objectBoundingBox" id="linearGradient-16" node-id="50" spreadMethod="pad" x1="0.42238772" x2="0.6877205" y1="0.4162666" y2="0.6962871"><stop offset="0" stop-color="#ccced1"></stop><stop offset="0.6622" stop-color="#c6c8cb"></stop><stop offset="1" stop-color="#e8e8ea"></stop></linearGradient><linearGradient gradientUnits="objectBoundingBox" id="linearGradient-17" node-id="54" spreadMethod="pad" x1="0.50027627" x2="0.50027627" y1="-0.00092367927" y2="0.99898195"><stop offset="0" stop-color="#eeeff0"></stop><stop offset="1" stop-color="#d7d8da"></stop></linearGradient><linearGradient gradientUnits="objectBoundingBox" id="linearGradient-18" node-id="57" spreadMethod="pad" x1="0.4963841" x2="0.4963841" y1="0.009630864" y2="0.99842036"><stop offset="0" stop-color="#ffffff"></stop><stop offset="1" stop-color="#ffffff" stop-opacity="0.4778"></stop></linearGradient><linearGradient gradientUnits="objectBoundingBox" id="linearGradient-19" node-id="60" spreadMethod="pad" x1="0.5003057" x2="0.5003057" y1="0.00054464815" y2="0.99952424"><stop offset="0" stop-color="#eff0f1"></stop><stop offset="1" stop-color="#bbbdc1"></stop></linearGradient><linearGradient gradientUnits="objectBoundingBox" id="linearGradient-20" node-id="63" spreadMethod="pad" x1="0.057839274" x2="-0.8831309" y1="0.815293" y2="0.18199813"><stop offset="0" stop-color="#eeeff0"></stop><stop offset="1" stop-color="#c4c6c9"></stop></linearGradient><linearGradient gradientUnits="objectBoundingBox" id="linearGradient-21" node-id="66" spreadMethod="pad" x1="0.50086224" x2="-0.20306192" y1="0.0040155193" y2="0.70793974"><stop offset="0" stop-color="#ffffff" stop-opacity="0.6357"></stop><stop offset="1" stop-color="#ffffff" stop-opacity="0.09743772"></stop></linearGradient></defs><g node-id="248"><g node-id="249"><g node-id="250"><path d="M 0.00 0.00 L 1080.00 0.00 L 1080.00 1080.00 L 0.00 1080.00 Z" fill="#ffffff" fill-opacity="0" fill-rule="nonzero" group-id="1,2,3" id="矩形" node-id="73" stroke="none" target-height="1080" target-width="1080" target-x="0" target-y="0"></path><g node-id="252"><path d="M 690.90 886.80 C 690.90 895.08 623.34 901.80 540.00 901.80 C 456.66 901.80 389.10 895.08 389.10 886.80 C 389.10 878.52 456.66 871.80 540.00 871.80 C 623.34 871.80 690.90 878.52 690.90 886.80 Z" fill="url(#linearGradient-1)" fill-opacity="0.2979" fill-rule="nonzero" group-id="1,2,3,5" id="椭圆形" node-id="74" stroke="none" target-height="30" target-width="301.80002" target-x="389.1" target-y="871.8"></path></g><g node-id="253"><g node-id="260"><path d="M 227.43 670.00 L 227.18 670.88 L 226.45 671.78 L 225.01 672.72 L 222.42 673.76 L 218.66 674.66 L 214.55 675.20 L 209.73 675.40 L 204.90 675.20 L 200.79 674.66 L 197.03 673.76 L 194.44 672.72 L 193.00 671.78 L 192.27 670.88 L 192.03 670.00 L 192.27 669.12 L 193.00 668.22 L 194.44 667.27 L 197.03 666.24 L 200.79 665.34 L 204.90 664.80 L 209.73 664.60 L 214.55 664.80 L 218.66 665.34 L 222.42 666.24 L 225.01 667.27 L 226.45 668.22 L 227.18 669.12 L 227.43 670.00 Z" fill="#9da1a6" fill-opacity="0.42003423" fill-rule="nonzero" group-id="1,2,3,6,13" id="椭圆形_1_" node-id="76" stroke="none" target-height="10.800049" target-width="35.399994" target-x="192.03" target-y="664.6"></path></g><g node-id="261"><path d="M 194.13 670.00 L 194.96 670.03 L 196.19 669.52 L 198.02 668.10 L 200.62 665.47 L 203.91 661.54 L 207.21 657.18 L 210.74 652.15 L 217.44 641.75 L 222.95 632.19 L 225.05 628.05 L 226.23 625.30 L 227.08 621.92 L 227.44 618.63 L 227.33 615.41 L 226.76 612.24 L 225.79 609.38 L 224.43 606.79 L 222.65 604.49 L 220.56 602.67 L 218.13 601.30 L 215.45 600.51 L 212.79 600.30 L 210.10 600.67 L 207.52 601.55 L 205.08 602.92 L 202.75 604.83 L 200.76 607.10 L 199.09 609.80 L 197.73 613.00 L 196.94 615.88 L 195.98 620.51 L 194.26 631.71 L 192.89 644.42 L 192.43 650.79 L 192.19 656.49 L 192.21 661.85 L 192.50 665.74 L 192.97 668.16 L 193.53 669.43 L 194.13 670.00 Z" fill="url(#linearGradient-2)" fill-opacity="0.40439165" fill-rule="nonzero" group-id="1,2,3,6,14" id="椭圆形_2_" node-id="77" stroke="none" target-height="69.73004" target-width="35.25" target-x="192.19" target-y="600.3"></path></g><path d="M 195.03 670.00 L 195.72 669.53 L 196.44 668.44 L 197.19 666.39 L 197.94 662.99 L 198.60 658.17 L 199.04 652.96 L 199.34 646.93 L 199.50 634.26 L 199.18 621.78 L 198.46 611.06 L 197.94 606.61 L 197.43 603.70 L 196.20 599.79 L 194.54 596.41 L 192.45 593.49 L 189.91 590.95 L 187.17 589.00 L 184.20 587.61 L 181.83 586.94 L 179.47 586.65 L 177.07 586.73 L 174.63 587.20 L 172.30 588.08 L 170.20 589.27 L 168.30 590.79 L 166.58 592.65 L 164.70 595.46 L 163.26 598.64 L 162.27 602.24 L 161.82 605.96 L 161.93 609.83 L 162.63 613.90 L 163.49 616.73 L 165.05 620.88 L 169.31 630.58 L 174.75 641.58 L 180.70 652.45 L 183.74 657.51 L 186.50 661.76 L 189.29 665.57 L 191.50 668.09 L 193.09 669.44 L 194.21 669.98 L 195.03 670.00 Z" fill="url(#linearGradient-3)" fill-opacity="0.70145994" fill-rule="nonzero" group-id="1,2,3,6" id="椭圆形_3_" node-id="78" stroke="none" target-height="83.349976" target-width="37.679993" target-x="161.82" target-y="586.65"></path></g><g node-id="254"><path d="M 291.90 241.20 C 290.70 241.20 289.50 241.20 288.30 240.90 C 286.80 241.20 285.30 241.20 283.80 241.20 C 260.40 241.20 241.20 222.30 241.20 198.60 C 241.20 174.90 260.10 156.00 283.80 156.00 C 286.50 156.00 289.20 156.30 291.60 156.60 C 301.20 138.30 320.40 125.70 342.60 125.70 C 374.40 125.70 400.20 151.50 400.20 183.30 L 400.20 183.30 L 434.40 183.30 C 450.30 183.30 463.20 196.20 463.20 212.10 C 463.20 228.00 450.30 240.90 434.40 240.90 L 291.90 240.90 L 291.90 241.20 Z" fill="url(#linearGradient-4)" fill-opacity="0.63" fill-rule="nonzero" group-id="1,2,3,7" id="形状结合" node-id="79" stroke="none" target-height="115.5" target-width="222.00002" target-x="241.2" target-y="125.7"></path></g><g node-id="255"><path d="M 101.42 803.11 L 111.16 789.27 L 120.59 776.73 L 129.72 765.42 L 138.56 755.24 L 147.12 746.14 L 155.41 738.03 L 163.45 730.85 L 171.25 724.55 L 179.37 718.67 L 187.27 713.65 L 194.96 709.43 L 202.46 705.95 L 209.80 703.17 L 216.98 701.06 L 224.05 699.58 L 231.02 698.70 L 237.92 698.41 L 244.75 698.69 L 251.74 699.55 L 258.94 701.00 L 266.36 703.09 L 274.03 705.85 L 281.97 709.32 L 290.22 713.55 L 298.79 718.61 L 307.71 724.55 L 316.25 730.85 L 325.13 738.03 L 334.38 746.14 L 344.01 755.25 L 354.04 765.43 L 364.49 776.75 L 375.38 789.28 L 386.72 803.11 L 101.42 803.11 Z" fill="url(#linearGradient-5)" fill-opacity="0.9" fill-rule="nonzero" group-id="1,2,3,8" id="路径" node-id="81" stroke="none" target-height="104.70001" target-width="285.3" target-x="101.42" target-y="698.41"></path><path d="M 270.32 803.11 L 279.54 786.23 L 288.63 770.77 L 297.57 756.68 L 306.36 743.85 L 315.02 732.21 L 323.54 721.70 L 331.93 712.24 L 340.18 703.76 L 348.32 696.20 L 356.20 689.61 L 363.98 683.80 L 371.68 678.73 L 379.29 674.34 L 386.85 670.61 L 394.35 667.51 L 401.82 665.00 L 409.27 663.07 L 416.73 661.70 L 424.21 660.88 L 431.72 660.61 L 439.95 660.91 L 449.15 661.86 L 459.42 663.55 L 470.86 666.07 L 483.59 669.52 L 497.71 674.00 L 513.34 679.63 L 530.61 686.51 L 549.65 694.78 L 570.58 704.57 L 593.54 716.00 L 618.68 729.23 L 646.14 744.40 L 676.08 761.67 L 708.65 781.18 L 744.02 803.11 L 270.32 803.11 Z" fill="none" group-id="1,2,3,8" id="路径-2" node-id="82" stroke="none" target-height="142.5" target-width="473.7" target-x="270.32" target-y="660.61"></path><path d="M 978.62 803.11 L 967.52 787.92 L 956.79 774.20 L 946.42 761.84 L 936.40 750.78 L 926.71 740.91 L 917.34 732.16 L 908.27 724.46 L 899.49 717.73 L 890.98 711.91 L 882.72 706.94 L 874.69 702.75 L 866.86 699.31 L 859.23 696.55 L 851.76 694.46 L 844.44 692.98 L 837.23 692.10 L 830.12 691.81 L 823.19 692.07 L 815.62 692.89 L 807.34 694.31 L 798.30 696.41 L 788.42 699.25 L 777.65 702.92 L 765.90 707.49 L 753.10 713.04 L 739.18 719.67 L 724.27 727.37 L 708.11 736.30 L 690.63 746.57 L 671.73 758.27 L 651.34 771.52 L 629.37 786.43 L 605.72 803.11 L 978.62 803.11 Z" fill="none" group-id="1,2,3,8" id="路径-3" node-id="83" stroke="none" target-height="111.29999" target-width="372.90002" target-x="605.72" target-y="691.81"></path></g><g node-id="256"><g node-id="262"><path d="M 827.64 596.06 L 827.45 596.75 L 826.89 597.44 L 825.79 598.18 L 823.82 598.99 L 820.95 599.69 L 817.81 600.10 L 814.14 600.26 L 810.46 600.10 L 807.32 599.69 L 804.46 598.99 L 802.48 598.18 L 801.38 597.44 L 800.82 596.75 L 800.64 596.06 L 800.82 595.37 L 801.38 594.67 L 802.48 593.94 L 804.46 593.13 L 807.32 592.43 L 810.46 592.02 L 814.14 591.86 L 817.81 592.02 L 820.95 592.43 L 823.82 593.13 L 825.79 593.94 L 826.89 594.67 L 827.45 595.37 L 827.64 596.06 Z" fill="#9da1a6" fill-opacity="0.60291" fill-rule="nonzero" group-id="1,2,3,9,15" id="椭圆形_4_" node-id="85" stroke="none" target-height="8.400024" target-width="27" target-x="800.64" target-y="591.86"></path></g><g node-id="263"><path d="M 802.44 595.76 L 803.08 595.78 L 804.02 595.41 L 805.42 594.40 L 807.42 592.51 L 809.95 589.70 L 812.48 586.58 L 815.19 582.97 L 820.32 575.51 L 824.55 568.64 L 826.15 565.65 L 827.04 563.66 L 827.65 561.30 L 827.90 558.98 L 827.80 556.69 L 827.36 554.44 L 826.62 552.40 L 825.57 550.53 L 824.22 548.88 L 822.62 547.56 L 820.74 546.56 L 818.68 545.99 L 816.63 545.86 L 814.55 546.15 L 812.54 546.82 L 810.64 547.85 L 808.82 549.27 L 807.25 550.96 L 805.93 552.94 L 804.84 555.26 L 804.20 557.27 L 803.45 560.55 L 802.15 568.49 L 801.16 577.53 L 800.86 582.06 L 800.72 586.13 L 800.80 589.94 L 801.07 592.72 L 801.47 594.43 L 801.94 595.34 L 802.44 595.76 Z" fill="url(#linearGradient-8)" fill-opacity="0.51884997" fill-rule="nonzero" group-id="1,2,3,9,16" id="椭圆形_5_" node-id="86" stroke="none" target-height="49.920044" target-width="27.180054" target-x="800.72" target-y="545.86"></path></g><path d="M 801.54 596.06 L 802.18 595.61 L 802.84 594.58 L 803.50 592.65 L 804.15 589.49 L 804.67 585.13 L 804.98 580.46 L 805.14 575.25 L 805.00 564.79 L 804.37 555.54 L 803.86 551.68 L 803.34 549.26 L 802.40 546.54 L 801.11 544.17 L 799.48 542.09 L 797.53 540.31 L 795.41 538.93 L 793.09 537.93 L 790.64 537.34 L 788.17 537.21 L 785.64 537.56 L 783.24 538.41 L 781.16 539.66 L 779.36 541.31 L 777.89 543.28 L 776.77 545.50 L 776.01 548.00 L 775.67 550.60 L 775.77 553.31 L 776.34 556.16 L 777.16 558.51 L 778.72 562.11 L 782.94 570.50 L 788.15 579.71 L 790.92 584.19 L 793.54 588.11 L 796.16 591.67 L 798.27 594.10 L 799.79 595.45 L 800.82 596.00 L 801.54 596.06 Z" fill="url(#linearGradient-9)" fill-opacity="0.9" fill-rule="nonzero" group-id="1,2,3,9" id="椭圆形_6_" node-id="87" stroke="none" target-height="58.849976" target-width="29.470032" target-x="775.67" target-y="537.21"></path></g><g node-id="257"><g node-id="264"><path d="M 875.41 890.88 L 875.16 891.77 L 874.43 892.66 L 872.99 893.61 L 870.40 894.65 L 866.64 895.55 L 862.53 896.08 L 857.71 896.28 L 852.88 896.08 L 848.77 895.55 L 845.01 894.65 L 842.42 893.61 L 840.98 892.66 L 840.25 891.77 L 840.01 890.88 L 840.25 890.00 L 840.98 889.10 L 842.42 888.16 L 845.01 887.12 L 848.77 886.22 L 852.88 885.69 L 857.71 885.48 L 862.53 885.69 L 866.64 886.22 L 870.40 887.12 L 872.99 888.16 L 874.43 889.10 L 875.16 890.00 L 875.41 890.88 Z" fill="#9da1a6" fill-opacity="0.48182362" fill-rule="nonzero" group-id="1,2,3,10,17" id="椭圆形_7_" node-id="89" stroke="none" target-height="10.800049" target-width="35.399963" target-x="840.01" target-y="885.48"></path></g><g node-id="265"><path d="M 844.81 891.78 L 845.74 891.87 L 847.06 891.45 L 848.96 890.25 L 851.69 887.91 L 855.17 884.30 L 858.69 880.21 L 862.57 875.32 L 866.42 870.18 L 870.28 864.74 L 877.43 853.97 L 880.59 848.81 L 883.13 844.41 L 885.28 840.29 L 886.51 837.48 L 887.68 833.38 L 888.18 829.41 L 888.05 825.54 L 887.32 821.73 L 886.06 818.28 L 884.26 815.13 L 882.57 812.99 L 880.64 811.17 L 878.46 809.63 L 876.01 808.38 L 873.38 807.56 L 870.78 807.16 L 868.18 807.16 L 865.55 807.58 L 862.18 808.70 L 858.99 810.42 L 855.96 812.78 L 853.34 815.60 L 851.12 818.91 L 849.31 822.78 L 848.39 825.71 L 847.29 830.26 L 845.29 841.29 L 843.57 854.22 L 842.89 860.92 L 842.39 867.40 L 842.08 873.70 L 842.02 879.15 L 842.25 884.23 L 842.74 887.83 L 843.36 890.02 L 844.06 891.22 L 844.81 891.78 Z" fill="url(#linearGradient-10)" fill-opacity="0.46535656" fill-rule="nonzero" group-id="1,2,3,10,18" id="椭圆形_8_" node-id="90" stroke="none" target-height="84.71002" target-width="46.159973" target-x="842.02" target-y="807.16"></path></g><path d="M 844.81 892.08 L 845.76 891.51 L 846.73 890.20 L 847.73 887.77 L 848.74 883.70 L 849.63 877.93 L 850.21 871.70 L 850.62 864.47 L 850.81 857.03 L 850.81 849.31 L 850.65 841.62 L 850.33 834.38 L 849.86 827.41 L 849.29 821.60 L 848.55 816.31 L 847.81 812.88 L 846.62 809.42 L 845.10 806.25 L 843.24 803.33 L 841.06 800.65 L 838.66 798.31 L 836.03 796.31 L 833.18 794.64 L 830.22 793.39 L 827.13 792.55 L 823.97 792.14 L 820.77 792.22 L 817.51 792.78 L 814.37 793.85 L 811.54 795.31 L 808.98 797.16 L 806.71 799.36 L 804.75 801.84 L 803.11 804.63 L 801.83 807.61 L 800.92 810.77 L 800.38 814.13 L 800.25 817.53 L 800.56 821.01 L 801.31 824.58 L 802.43 827.91 L 804.52 832.87 L 807.03 838.20 L 810.22 844.50 L 813.68 850.95 L 817.51 857.73 L 821.51 864.45 L 825.51 870.84 L 829.59 876.94 L 833.32 882.09 L 837.06 886.68 L 840.05 889.74 L 842.17 891.38 L 843.69 892.04 L 844.81 892.08 Z" fill="url(#linearGradient-11)" fill-opacity="0.80720997" fill-rule="nonzero" group-id="1,2,3,10" id="椭圆形_9_" node-id="91" stroke="none" target-height="99.94" target-width="50.559998" target-x="800.25" target-y="792.14"></path></g></g><g node-id="251"><g node-id="258"><g node-id="266"><g node-id="270"><path d="M 339.50 381.05 L 533.36 329.11 L 538.21 328.03 L 542.99 327.36 L 547.72 327.07 L 552.42 327.18 L 558.66 327.90 L 564.69 329.23 L 570.54 331.17 L 576.16 333.70 L 581.47 336.76 L 586.47 340.37 L 591.08 344.47 L 595.25 349.02 L 598.98 354.06 L 601.43 358.08 L 603.55 362.32 L 605.36 366.80 L 606.85 371.54 L 681.46 650.01 L 682.54 654.86 L 683.22 659.64 L 683.50 664.38 L 683.39 669.07 L 682.67 675.31 L 681.34 681.34 L 679.40 687.19 L 676.87 692.82 L 673.81 698.12 L 670.20 703.12 L 666.11 707.73 L 661.55 711.90 L 656.51 715.63 L 652.49 718.08 L 648.25 720.20 L 643.77 722.01 L 639.04 723.50 L 445.18 775.44 L 440.33 776.52 L 435.55 777.20 L 430.81 777.48 L 426.11 777.37 L 419.88 776.65 L 413.85 775.32 L 408.00 773.38 L 402.37 770.85 L 397.07 767.79 L 392.07 764.18 L 387.46 760.08 L 383.29 755.53 L 379.55 750.49 L 377.11 746.47 L 374.99 742.23 L 373.18 737.75 L 371.69 733.02 L 297.07 454.54 L 295.99 449.69 L 295.32 444.91 L 295.04 440.18 L 295.15 435.48 L 295.86 429.24 L 297.19 423.21 L 299.14 417.36 L 301.67 411.74 L 304.73 406.43 L 308.34 401.43 L 312.43 396.82 L 316.99 392.65 L 322.03 388.92 L 326.04 386.47 L 330.28 384.35 L 334.76 382.54 L 339.50 381.05 Z" fill="#ccced1" fill-opacity="0.9" fill-rule="nonzero" group-id="1,2,4,11,19,23" id="path-16" node-id="96" stroke="none" target-height="450.40997" target-width="388.46" target-x="295.04" target-y="327.07"></path></g><path d="M 337.03 355.92 L 462.13 333.72 L 508.33 597.72 L 383.23 619.92 Z" fill="#ccced1" fill-opacity="0.21688682" fill-rule="nonzero" group-id="1,2,4,11,19,24" id="路径_1_" node-id="98" stroke="none" target-height="286.19998" target-width="171.29999" target-x="337.03" target-y="333.72"></path></g><g node-id="267"><g node-id="272"><path d="M 441.02 335.57 L 672.02 335.57 L 676.98 335.78 L 681.77 336.36 L 686.42 337.32 L 690.93 338.64 L 696.76 340.94 L 702.24 343.79 L 707.39 347.18 L 712.17 351.08 L 716.50 355.41 L 720.40 360.19 L 723.79 365.34 L 726.64 370.82 L 728.94 376.65 L 730.26 381.17 L 731.22 385.81 L 731.80 390.61 L 732.02 395.57 L 732.02 724.97 L 731.80 729.93 L 731.22 734.72 L 730.26 739.37 L 728.94 743.88 L 726.64 749.72 L 723.79 755.19 L 720.40 760.34 L 716.50 765.12 L 712.17 769.45 L 707.39 773.35 L 702.24 776.74 L 696.76 779.59 L 690.93 781.89 L 686.42 783.21 L 681.77 784.17 L 676.98 784.75 L 672.02 784.97 L 441.02 784.97 L 436.05 784.75 L 431.26 784.17 L 426.62 783.21 L 422.10 781.89 L 416.27 779.59 L 410.79 776.74 L 405.64 773.35 L 400.86 769.45 L 396.53 765.12 L 392.63 760.34 L 389.24 755.19 L 386.39 749.72 L 384.09 743.88 L 382.77 739.37 L 381.81 734.72 L 381.23 729.93 L 381.02 724.97 L 381.02 395.57 L 381.23 390.61 L 381.81 385.81 L 382.77 381.17 L 384.09 376.65 L 386.39 370.82 L 389.24 365.34 L 392.63 360.19 L 396.53 355.41 L 400.86 351.08 L 405.64 347.18 L 410.79 343.79 L 416.27 340.94 L 422.10 338.64 L 426.62 337.32 L 431.26 336.36 L 436.05 335.78 L 441.02 335.57 Z" fill="url(#linearGradient-12)" fill-opacity="0.9" fill-rule="nonzero" group-id="1,2,4,11,20,25" id="path-19" node-id="101" stroke="none" target-height="449.39996" target-width="351.00003" target-x="381.02" target-y="335.57"></path></g><g node-id="273"><g node-id="276"><path d="M 441.69 360.24 L 671.19 360.24 L 676.11 360.58 L 680.75 361.53 L 685.16 363.08 L 689.34 365.19 L 693.14 367.76 L 696.61 370.81 L 699.66 374.28 L 702.24 378.08 L 704.34 382.26 L 705.89 386.67 L 706.84 391.31 L 707.19 396.24 L 707.19 724.44 L 706.84 729.36 L 705.89 734.01 L 704.34 738.41 L 702.24 742.59 L 699.66 746.40 L 696.61 749.86 L 693.14 752.92 L 689.34 755.49 L 685.16 757.60 L 680.75 759.14 L 676.11 760.09 L 671.19 760.44 L 441.69 760.44 L 436.76 760.09 L 432.12 759.14 L 427.71 757.60 L 423.53 755.49 L 419.73 752.92 L 416.26 749.86 L 413.21 746.40 L 410.63 742.59 L 408.53 738.41 L 406.98 734.01 L 406.03 729.36 L 405.69 724.44 L 405.69 396.24 L 406.03 391.31 L 406.98 386.67 L 408.53 382.26 L 410.63 378.08 L 413.21 374.28 L 416.26 370.81 L 419.73 367.76 L 423.53 365.19 L 427.71 363.08 L 432.12 361.53 L 436.76 360.58 L 441.69 360.24 Z" fill="#ffffff" fill-opacity="0.9" fill-rule="nonzero" group-id="1,2,4,11,20,26,29" id="path-21" node-id="104" stroke="none" target-height="400.2" target-width="301.5" target-x="405.69" target-y="360.24"></path></g><path d="M 400.29 750.84 L 570.09 750.84 L 589.12 748.47 L 600.27 746.59 L 606.09 745.14 L 615.37 741.60 L 624.47 737.45 L 633.40 732.67 L 642.01 727.34 L 650.24 721.50 L 658.10 715.14 L 663.72 710.03 L 669.02 704.70 L 674.01 699.13 L 678.69 693.33 L 683.05 687.27 L 687.00 681.04 L 690.54 674.63 L 693.69 668.04 L 699.87 653.31 L 704.76 640.34 L 708.51 628.97 L 711.25 619.03 L 713.11 610.40 L 714.22 602.92 L 714.67 596.47 L 714.56 590.93 L 713.97 586.17 L 712.97 582.09 L 711.60 578.61 L 709.89 575.64 L 400.29 584.94 L 400.29 750.84 Z" fill="#c3c5c8" fill-opacity="0.09036" fill-rule="nonzero" group-id="1,2,4,11,20,26,30" id="路径_2_" node-id="106" stroke="none" target-height="175.20001" target-width="314.37997" target-x="400.29" target-y="575.64"></path></g><g node-id="274"><g node-id="278"><path d="M 439.38 360.24 L 674.28 360.24 L 678.84 360.55 L 683.11 361.41 L 687.16 362.82 L 690.99 364.74 L 694.48 367.09 L 697.65 369.87 L 700.43 373.04 L 702.78 376.53 L 704.70 380.36 L 706.11 384.41 L 706.97 388.69 L 707.28 393.24 L 707.28 574.74 L 707.28 574.74 L 689.58 632.04 L 686.63 640.60 L 683.20 648.82 L 679.30 656.70 L 674.91 664.26 L 670.04 671.55 L 664.77 678.45 L 659.12 684.96 L 653.05 691.12 L 646.61 696.88 L 639.86 702.20 L 632.79 707.09 L 625.39 711.55 L 617.73 715.53 L 609.84 719.02 L 601.70 722.01 L 593.31 724.51 L 584.79 726.45 L 576.11 727.85 L 567.25 728.68 L 558.18 728.94 L 377.88 728.64 L 374.15 728.38 L 370.63 727.65 L 367.29 726.48 L 364.13 724.87 L 361.24 722.91 L 358.61 720.57 L 356.29 717.93 L 354.34 715.01 L 352.74 711.80 L 351.57 708.42 L 350.85 704.84 L 350.58 701.04 L 350.70 698.34 L 351.07 695.71 L 351.73 693.18 L 352.68 690.84 L 406.68 559.44 L 406.68 559.44 L 406.68 393.24 L 407.00 388.69 L 407.86 384.41 L 409.26 380.36 L 411.18 376.53 L 413.51 373.04 L 416.28 369.87 L 419.43 367.08 L 422.89 364.74 L 426.68 362.82 L 430.69 361.41 L 434.91 360.55 L 439.38 360.24 Z" fill="url(#linearGradient-13)" fill-opacity="0.9" fill-rule="nonzero" group-id="1,2,4,11,20,27,31" id="path-24" node-id="109" stroke="none" target-height="368.7" target-width="356.70004" target-x="350.58" target-y="360.24"></path></g><g node-id="279"><path d="M 714.78 545.34 L 713.47 547.01 L 711.39 550.83 L 706.28 561.42 L 703.03 567.88 L 698.97 575.30 L 694.41 582.78 L 688.97 590.64 L 685.00 595.72 L 680.61 600.72 L 675.78 605.64 L 671.99 608.83 L 667.65 611.86 L 662.71 614.73 L 654.93 618.57 L 646.37 622.28 L 628.67 629.48 L 619.88 633.35 L 611.54 637.54 L 606.21 640.65 L 601.33 644.02 L 596.88 647.64 L 594.13 650.39 L 591.80 653.18 L 589.88 656.00 L 587.35 660.49 L 585.12 665.18 L 580.53 675.03 L 577.72 680.06 L 574.05 685.42 L 571.25 688.83 L 567.79 692.43 L 563.58 696.24 L 557.77 700.84 L 550.22 706.17 L 540.65 712.32 L 528.75 719.37 L 513.12 727.99 L 494.09 737.83 L 471.18 749.04 L 678.78 753.84 L 694.42 675.49 L 704.68 621.63 L 710.90 586.51 L 714.23 565.18 L 715.64 553.42 L 715.92 547.81 L 715.68 545.69 L 715.30 545.15 L 714.78 545.34 Z" fill="#c7c9cc" fill-opacity="0.58634996" fill-rule="nonzero" group-id="1,2,4,11,20,27,32" id="路径-6" node-id="111" stroke="none" target-height="208.69" target-width="244.73999" target-x="471.18" target-y="545.15"></path></g><g node-id="280"><path d="M 583.38 482.34 L 584.97 482.62 L 586.41 483.44 L 587.60 484.67 L 588.56 486.34 L 589.16 488.24 L 589.38 490.44 L 589.16 492.63 L 588.56 494.54 L 587.60 496.20 L 586.41 497.44 L 584.97 498.25 L 583.38 498.54 L 512.88 498.54 L 511.30 498.25 L 509.86 497.44 L 508.67 496.20 L 507.71 494.54 L 507.11 492.63 L 506.88 490.44 L 507.11 488.24 L 507.71 486.34 L 508.67 484.67 L 509.86 483.44 L 511.30 482.62 L 512.88 482.34 L 583.38 482.34 Z M 665.58 452.34 L 667.17 452.62 L 668.61 453.44 L 669.80 454.67 L 670.76 456.34 L 671.36 458.24 L 671.58 460.44 L 671.36 462.63 L 670.76 464.54 L 669.80 466.20 L 668.61 467.44 L 667.17 468.25 L 665.58 468.54 L 512.88 468.54 L 511.30 468.25 L 509.86 467.44 L 508.67 466.20 L 507.71 464.54 L 507.11 462.63 L 506.88 460.44 L 507.11 458.24 L 507.71 456.34 L 508.67 454.67 L 509.86 453.44 L 511.30 452.62 L 512.88 452.34 L 665.58 452.34 Z M 435.78 423.24 L 493.38 423.24 L 493.38 500.04 L 435.78 500.04 L 435.78 423.24 Z M 665.58 422.04 L 667.17 422.32 L 668.61 423.14 L 669.80 424.37 L 670.76 426.04 L 671.36 427.94 L 671.58 430.14 L 671.36 432.33 L 670.76 434.24 L 669.80 435.90 L 668.61 437.14 L 667.17 437.95 L 665.58 438.24 L 512.88 438.24 L 511.30 437.95 L 509.86 437.14 L 508.67 435.90 L 507.71 434.24 L 507.11 432.33 L 506.88 430.14 L 507.11 427.94 L 507.71 426.04 L 508.67 424.37 L 509.86 423.14 L 511.30 422.32 L 512.88 422.04 L 665.58 422.04 Z" fill="url(#linearGradient-14)" fill-opacity="0.53757" fill-rule="nonzero" group-id="1,2,4,11,20,27,33" id="形状" node-id="113" stroke="none" target-height="78" target-width="235.80002" target-x="435.78" target-y="422.04"></path></g><g node-id="281"><path d="M 583.38 605.94 L 584.97 606.22 L 586.41 607.04 L 587.60 608.27 L 588.56 609.94 L 589.16 611.84 L 589.38 614.04 L 589.16 616.23 L 588.56 618.14 L 587.60 619.80 L 586.41 621.04 L 584.97 621.85 L 583.38 622.14 L 512.88 622.14 L 511.30 621.85 L 509.86 621.04 L 508.67 619.80 L 507.71 618.14 L 507.11 616.23 L 506.88 614.04 L 507.11 611.84 L 507.71 609.94 L 508.67 608.27 L 509.86 607.04 L 511.30 606.22 L 512.88 605.94 L 583.38 605.94 Z M 665.58 575.64 L 667.17 575.92 L 668.61 576.74 L 669.80 577.97 L 670.76 579.64 L 671.36 581.54 L 671.58 583.74 L 671.36 585.93 L 670.76 587.84 L 669.80 589.50 L 668.61 590.74 L 667.17 591.55 L 665.58 591.84 L 512.88 591.84 L 511.30 591.55 L 509.86 590.74 L 508.67 589.50 L 507.71 587.84 L 507.11 585.93 L 506.88 583.74 L 507.11 581.54 L 507.71 579.64 L 508.67 577.97 L 509.86 576.74 L 511.30 575.92 L 512.88 575.64 L 665.58 575.64 Z M 435.78 546.54 L 493.38 546.54 L 493.38 623.34 L 435.78 623.34 L 435.78 546.54 Z M 665.58 545.34 L 667.17 545.62 L 668.61 546.44 L 669.80 547.67 L 670.76 549.34 L 671.36 551.24 L 671.58 553.44 L 671.36 555.63 L 670.76 557.54 L 669.80 559.20 L 668.61 560.44 L 667.17 561.25 L 665.58 561.54 L 512.88 561.54 L 511.30 561.25 L 509.86 560.44 L 508.67 559.20 L 507.71 557.54 L 507.11 555.63 L 506.88 553.44 L 507.11 551.24 L 507.71 549.34 L 508.67 547.67 L 509.86 546.44 L 511.30 545.62 L 512.88 545.34 L 665.58 545.34 Z" fill="url(#linearGradient-15)" fill-opacity="0.53757" fill-rule="nonzero" group-id="1,2,4,11,20,27,34" id="形状备份" node-id="115" stroke="none" target-height="78" target-width="235.80002" target-x="435.78" target-y="545.34"></path></g><g node-id="282"><path d="M 721.98 545.34 L 719.12 555.08 L 715.93 564.18 L 712.41 572.68 L 708.59 580.61 L 704.46 588.01 L 700.03 594.89 L 695.31 601.30 L 690.30 607.25 L 684.77 612.97 L 678.90 618.25 L 672.70 623.09 L 666.14 627.51 L 659.20 631.51 L 651.86 635.10 L 644.09 638.28 L 635.88 641.04 L 628.67 643.39 L 622.77 645.69 L 618.02 647.93 L 613.43 650.52 L 609.69 653.06 L 606.70 655.54 L 603.94 658.30 L 601.61 661.06 L 599.66 663.83 L 597.04 668.19 L 594.63 672.70 L 592.19 677.27 L 589.34 682.10 L 587.22 685.22 L 584.63 688.50 L 581.51 691.95 L 578.15 695.15 L 573.98 698.55 L 568.87 702.18 L 563.56 705.47 L 557.04 708.98 L 549.15 712.74 L 541.12 716.12 L 531.50 719.72 L 520.08 723.54 L 512.55 726.69 L 508.84 728.75 L 507.41 730.04 L 507.16 730.86 L 507.59 731.49 L 509.04 732.09 L 512.48 732.56 L 519.30 732.65 L 531.30 731.98 L 550.63 730.13 L 579.84 726.57 L 621.85 720.70 L 679.98 711.84 L 721.98 545.34 Z" fill="url(#linearGradient-16)" fill-opacity="0.9" fill-rule="nonzero" group-id="1,2,4,11,20,27,35" id="路径_3_" node-id="117" stroke="none" target-height="187.31" target-width="214.81998" target-x="507.16" target-y="545.34"></path></g><path d="M 698.88 614.04 L 698.45 616.00 L 696.56 620.68 L 693.97 626.00 L 690.09 633.11 L 685.67 640.59 L 680.25 649.06 L 674.34 657.57 L 667.77 666.26 L 663.14 671.92 L 658.36 677.31 L 653.43 682.44 L 648.27 687.32 L 643.12 691.60 L 637.98 695.34 L 630.00 700.47 L 621.71 705.37 L 613.11 710.06 L 604.34 714.39 L 595.35 718.36 L 586.16 721.96 L 576.81 725.12 L 567.34 727.78 L 557.74 729.93 L 548.04 731.52 L 538.30 732.49 L 528.48 732.84 L 523.59 733.03 L 521.41 733.36 L 520.69 733.69 L 520.60 733.99 L 521.15 734.47 L 523.50 735.21 L 529.76 736.25 L 535.76 736.87 L 544.27 737.40 L 555.91 737.77 L 567.52 737.82 L 581.75 737.50 L 598.98 736.74 L 603.48 736.24 L 609.39 735.14 L 617.02 733.29 L 628.86 729.77 L 644.28 724.44 L 660.88 705.18 L 672.49 690.93 L 680.19 680.71 L 684.92 673.63 L 687.48 668.94 L 691.60 659.79 L 694.72 652.05 L 696.96 645.54 L 698.88 638.90 L 700.13 633.51 L 700.83 629.18 L 701.23 624.78 L 701.28 621.46 L 701.09 619.02 L 700.42 615.72 L 699.77 614.25 L 699.24 613.66 L 699.01 613.65 L 698.88 614.04 Z" fill="#ffffff" fill-opacity="0.32165998" fill-rule="nonzero" group-id="1,2,4,11,20,27,36" id="路径-5" node-id="119" stroke="none" target-height="124.16998" target-width="180.68005" target-x="520.6" target-y="613.65"></path></g><path d="M 556.38 291.67 L 560.61 291.89 L 564.64 292.51 L 568.50 293.51 L 572.20 294.88 L 575.77 296.62 L 579.10 298.65 L 582.19 300.99 L 585.07 303.63 L 587.69 306.54 L 589.99 309.66 L 592.00 313.01 L 593.72 316.60 L 595.07 320.32 L 596.05 324.20 L 596.66 328.24 L 596.88 332.47 L 596.88 332.47 L 652.38 332.47 L 653.86 332.67 L 655.12 333.20 L 656.21 334.04 L 657.05 335.13 L 657.58 336.39 L 657.78 337.87 L 657.78 373.57 L 657.58 375.04 L 657.05 376.30 L 656.21 377.39 L 655.12 378.24 L 653.86 378.76 L 652.38 378.97 L 460.38 378.97 L 458.91 378.76 L 457.65 378.24 L 456.56 377.39 L 455.71 376.30 L 455.19 375.04 L 454.98 373.57 L 454.98 338.17 L 455.19 336.69 L 455.71 335.43 L 456.56 334.34 L 457.65 333.50 L 458.91 332.97 L 460.38 332.77 L 515.88 332.77 L 516.11 328.48 L 516.73 324.39 L 517.72 320.48 L 519.09 316.73 L 520.83 313.10 L 522.86 309.73 L 525.18 306.59 L 527.81 303.67 L 530.71 301.01 L 533.81 298.66 L 537.13 296.62 L 540.69 294.88 L 544.39 293.50 L 548.22 292.51 L 552.21 291.89 L 556.38 291.67 Z" fill="#c3c5c8" fill-opacity="0.9" fill-rule="nonzero" group-id="1,2,4,11,20" id="形状结合_1_" node-id="120" stroke="none" target-height="87.29999" target-width="202.80002" target-x="454.98" target-y="291.67"></path><path d="M 460.43 368.47 L 458.95 368.26 L 457.69 367.74 L 456.60 366.89 L 455.76 365.80 L 455.23 364.54 L 455.03 363.07 L 455.03 334.27 L 455.23 332.79 L 455.76 331.53 L 456.60 330.44 L 457.69 329.60 L 458.95 329.07 L 460.43 328.87 L 515.93 328.87 L 516.15 324.69 L 516.76 320.72 L 517.74 316.92 L 519.09 313.27 L 520.81 309.75 L 522.81 306.48 L 525.12 303.43 L 527.74 300.59 L 530.61 298.02 L 533.71 295.75 L 537.03 293.77 L 540.61 292.08 L 544.30 290.75 L 548.16 289.78 L 552.19 289.19 L 556.43 288.97 L 560.66 289.19 L 564.69 289.78 L 568.55 290.75 L 572.25 292.08 L 575.82 293.76 L 579.15 295.74 L 582.24 298.00 L 585.11 300.56 L 587.73 303.38 L 590.04 306.41 L 592.05 309.66 L 593.76 313.14 L 595.12 316.76 L 596.10 320.52 L 596.70 324.45 L 596.93 328.57 L 596.93 328.57 L 652.43 328.57 L 653.90 328.77 L 655.16 329.30 L 656.25 330.14 L 657.10 331.23 L 657.62 332.49 L 657.83 333.97 L 657.83 362.77 L 657.62 364.24 L 657.10 365.50 L 656.25 366.59 L 655.16 367.44 L 653.90 367.96 L 652.43 368.17 L 460.43 368.17 L 460.43 368.47 Z" fill="url(#linearGradient-17)" fill-opacity="0.9" fill-rule="nonzero" group-id="1,2,4,11,20,28" id="path-32" node-id="122" stroke="none" target-height="79.5" target-width="202.80002" target-x="455.03" target-y="288.97"></path><path d="M 575.88 325.87 L 575.68 328.73 L 575.13 331.41 L 574.26 333.93 L 573.06 336.32 L 571.00 339.22 L 568.54 341.68 L 565.63 343.74 L 563.25 344.95 L 560.73 345.82 L 558.05 346.36 L 555.18 346.57 L 552.32 346.36 L 549.64 345.82 L 547.12 344.95 L 544.74 343.74 L 541.83 341.68 L 539.37 339.22 L 537.31 336.32 L 536.11 333.93 L 535.23 331.41 L 534.69 328.73 L 534.48 325.87 L 534.69 323.00 L 535.23 320.32 L 536.11 317.80 L 537.31 315.42 L 539.37 312.52 L 541.83 310.05 L 544.74 307.99 L 547.12 306.79 L 549.64 305.92 L 552.32 305.38 L 555.18 305.17 L 558.05 305.38 L 560.73 305.92 L 563.25 306.79 L 565.63 307.99 L 568.54 310.05 L 571.00 312.52 L 573.06 315.42 L 574.26 317.80 L 575.13 320.32 L 575.68 323.00 L 575.88 325.87 Z" fill="url(#linearGradient-18)" fill-opacity="0.9" fill-rule="nonzero" group-id="1,2,4,11,20" id="椭圆形_10_" node-id="123" stroke="none" target-height="41.399994" target-width="41.400024" target-x="534.48" target-y="305.17"></path></g></g><g node-id="259"><g node-id="268"><path d="M 510.32 572.40 L 505.11 567.54 L 499.75 563.12 L 494.22 559.13 L 488.52 555.56 L 482.65 552.38 L 476.54 549.57 L 470.36 547.16 L 464.10 545.17 L 457.75 543.57 L 451.30 542.38 L 443.15 541.44 L 435.02 541.13 L 426.89 541.44 L 418.74 542.38 L 412.29 543.57 L 405.94 545.17 L 399.68 547.16 L 393.50 549.57 L 387.39 552.38 L 381.52 555.56 L 375.82 559.13 L 370.29 563.12 L 364.93 567.54 L 359.72 572.40 L 354.86 577.61 L 350.44 582.97 L 346.45 588.50 L 342.88 594.20 L 339.70 600.07 L 336.89 606.18 L 334.48 612.36 L 332.49 618.62 L 330.89 624.97 L 329.70 631.42 L 328.76 639.57 L 328.45 647.70 L 328.76 655.83 L 329.70 663.98 L 330.89 670.43 L 332.49 676.78 L 334.48 683.04 L 336.89 689.22 L 339.70 695.33 L 342.88 701.20 L 346.45 706.90 L 350.44 712.43 L 354.86 717.79 L 359.72 723.00 L 364.93 727.86 L 370.29 732.28 L 375.82 736.27 L 381.52 739.84 L 387.39 743.02 L 393.50 745.83 L 399.68 748.24 L 405.94 750.23 L 412.29 751.83 L 418.74 753.02 L 426.89 753.96 L 435.02 754.28 L 443.15 753.96 L 451.30 753.02 L 457.75 751.83 L 464.10 750.23 L 470.36 748.24 L 476.54 745.83 L 482.65 743.02 L 488.52 739.84 L 494.22 736.27 L 499.75 732.28 L 505.11 727.86 L 510.32 723.00 L 515.18 717.79 L 519.60 712.43 L 523.59 706.90 L 527.16 701.20 L 530.34 695.33 L 533.15 689.22 L 535.56 683.04 L 537.55 676.78 L 539.15 670.43 L 540.34 663.98 L 541.28 655.83 L 541.60 647.70 L 541.28 639.57 L 540.34 631.42 L 539.15 624.97 L 537.55 618.62 L 535.56 612.36 L 533.15 606.18 L 530.34 600.07 L 527.16 594.20 L 523.59 588.50 L 519.60 582.97 L 515.18 577.61 L 510.32 572.40 Z M 495.32 587.40 L 500.12 592.62 L 504.36 598.04 L 508.09 603.67 L 511.30 609.53 L 514.06 615.66 L 516.31 621.87 L 518.05 628.20 L 519.30 634.65 L 520.05 641.18 L 520.30 647.70 L 520.05 654.22 L 519.30 660.75 L 518.05 667.20 L 516.31 673.53 L 514.06 679.74 L 511.30 685.87 L 508.09 691.73 L 504.36 697.36 L 500.12 702.78 L 495.32 708.00 L 490.10 712.80 L 484.68 717.04 L 479.05 720.77 L 473.19 723.98 L 467.06 726.74 L 460.85 728.99 L 454.53 730.73 L 448.07 731.98 L 441.54 732.73 L 435.02 732.98 L 428.50 732.73 L 421.97 731.98 L 415.52 730.73 L 409.19 728.99 L 402.98 726.74 L 396.85 723.98 L 390.99 720.77 L 385.36 717.04 L 379.94 712.80 L 374.72 708.00 L 369.93 702.78 L 365.68 697.36 L 361.96 691.73 L 358.74 685.87 L 355.98 679.74 L 353.73 673.53 L 351.99 667.20 L 350.74 660.75 L 349.99 654.22 L 349.75 647.70 L 349.99 641.18 L 350.74 634.65 L 351.99 628.20 L 353.73 621.87 L 355.98 615.66 L 358.74 609.53 L 361.96 603.67 L 365.68 598.04 L 369.93 592.62 L 374.72 587.40 L 379.94 582.60 L 385.36 578.36 L 390.99 574.63 L 396.85 571.42 L 402.98 568.66 L 409.19 566.41 L 415.52 564.67 L 421.97 563.42 L 428.50 562.67 L 435.02 562.43 L 441.54 562.67 L 448.07 563.42 L 454.53 564.67 L 460.85 566.41 L 467.06 568.66 L 473.19 571.42 L 479.05 574.63 L 484.68 578.36 L 490.10 582.60 L 495.32 587.40 Z" fill="url(#linearGradient-19)" fill-opacity="0.9" fill-rule="nonzero" group-id="1,2,4,12,21" id="path-36" node-id="126" stroke="none" target-height="213.15002" target-width="213.14996" target-x="328.45" target-y="541.13"></path></g><path d="M 355.99 711.69 L 337.09 730.59 L 335.29 728.79 L 333.48 727.40 L 331.52 726.59 L 329.44 726.31 L 327.35 726.59 L 325.39 727.40 L 323.59 728.79 L 242.29 810.09 L 241.01 811.75 L 240.21 813.63 L 239.89 815.64 L 240.07 817.64 L 240.75 819.52 L 241.99 821.19 L 242.29 821.49 L 260.89 840.09 L 262.69 841.48 L 264.65 842.29 L 266.74 842.56 L 268.82 842.29 L 270.78 841.48 L 272.59 840.09 L 353.89 758.79 L 355.16 757.13 L 355.97 755.24 L 356.29 753.23 L 356.11 751.23 L 355.42 749.35 L 354.19 747.69 L 353.89 747.39 L 352.09 745.59 L 370.99 726.69 L 355.99 711.69 Z" fill="url(#linearGradient-20)" fill-opacity="0.9" fill-rule="nonzero" group-id="1,2,4,12" id="形状结合_2_" node-id="127" stroke="none" target-height="130.87" target-width="131.09999" target-x="239.89" target-y="711.69"></path><path d="M 374.75 587.42 L 369.96 592.64 L 365.72 598.05 L 362.00 603.68 L 358.78 609.53 L 356.02 615.65 L 353.78 621.86 L 352.04 628.18 L 350.79 634.62 L 350.05 641.15 L 349.80 647.67 L 350.05 654.18 L 350.79 660.71 L 352.04 667.15 L 353.78 673.47 L 356.02 679.68 L 358.78 685.80 L 362.00 691.65 L 365.72 697.28 L 369.96 702.70 L 374.75 707.91 L 379.97 712.70 L 385.38 716.95 L 391.01 720.67 L 396.86 723.88 L 402.98 726.64 L 409.19 728.88 L 415.51 730.62 L 421.95 731.87 L 428.48 732.62 L 435.00 732.87 L 441.51 732.62 L 448.04 731.87 L 454.48 730.62 L 460.80 728.88 L 467.01 726.64 L 473.13 723.88 L 478.98 720.67 L 484.61 716.95 L 490.03 712.70 L 495.24 707.91 L 500.03 702.70 L 504.28 697.28 L 508.00 691.65 L 511.21 685.80 L 513.97 679.68 L 516.21 673.47 L 517.95 667.15 L 519.20 660.71 L 519.95 654.18 L 520.20 647.67 L 519.95 641.15 L 519.20 634.62 L 517.95 628.18 L 516.21 621.86 L 513.97 615.65 L 511.21 609.53 L 508.00 603.68 L 504.28 598.05 L 500.03 592.64 L 495.24 587.42 L 490.03 582.63 L 484.61 578.39 L 478.98 574.67 L 473.13 571.45 L 467.01 568.69 L 460.80 566.45 L 454.48 564.71 L 448.04 563.46 L 441.51 562.72 L 435.00 562.47 L 428.48 562.72 L 421.95 563.46 L 415.51 564.71 L 409.19 566.45 L 402.98 568.69 L 396.86 571.45 L 391.01 574.67 L 385.38 578.39 L 379.97 582.63 L 374.75 587.42 Z" fill="url(#linearGradient-21)" fill-opacity="0.9" fill-rule="nonzero" group-id="1,2,4,12,22" id="path-40" node-id="129" stroke="none" target-height="170.40002" target-width="170.40002" target-x="349.8" target-y="562.47"></path></g></g></g></g></svg>